<?xml version="1.0"?>
<svg xmlns="http://www.w3.org/2000/svg" xmlns:xlink="http://www.w3.org/1999/xlink" version="1.1" id="Capa_1" x="0px" y="0px" viewBox="0 0 512 512" style="enable-background:new 0 0 512 512;" xml:space="preserve" width="512px" height="512px"><g><g>
	<g>
		<g>
			<path d="M444.519,17.067h-25.6V8.533c0-4.713-3.82-8.533-8.533-8.533s-8.533,3.82-8.533,8.533v8.533h-102.4V8.533     c0-4.713-3.82-8.533-8.533-8.533s-8.533,3.82-8.533,8.533v8.533h-102.4V8.533c0-4.713-3.82-8.533-8.533-8.533     s-8.533,3.82-8.533,8.533v8.533h-25.6c-14.132,0.015-25.585,11.468-25.6,25.6V204.8c0,4.713,3.82,8.533,8.533,8.533     s8.533-3.821,8.533-8.533V42.667c0.006-4.71,3.823-8.527,8.533-8.533h25.6v18.639c-11.755,4.156-18.806,16.176-16.698,28.465     c2.108,12.289,12.763,21.271,25.231,21.271s23.123-8.982,25.231-21.271s-4.943-24.309-16.698-28.465V34.133h102.4v18.639     c-11.755,4.156-18.806,16.176-16.698,28.465s12.763,21.271,25.231,21.271s23.123-8.982,25.231-21.271     s-4.943-24.309-16.698-28.465V34.133h102.4v18.639c-11.755,4.156-18.806,16.176-16.698,28.465     c2.108,12.289,12.763,21.271,25.231,21.271s23.123-8.982,25.231-21.271s-4.943-24.309-16.698-28.465V34.133h25.6     c4.71,0.006,8.527,3.823,8.533,8.533V486.4c-0.006,4.71-3.823,8.527-8.533,8.533h-307.2c-4.71-0.006-8.527-3.823-8.533-8.533     V366.933c0-4.713-3.82-8.533-8.533-8.533s-8.533,3.82-8.533,8.533V486.4c0.015,14.132,11.468,25.585,25.6,25.6h307.2     c14.132-0.015,25.585-11.468,25.6-25.6V42.667C470.104,28.535,458.651,17.082,444.519,17.067z M171.452,85.333     c-4.713,0-8.533-3.82-8.533-8.533s3.82-8.533,8.533-8.533s8.533,3.82,8.533,8.533C179.98,81.51,176.163,85.327,171.452,85.333z      M290.919,85.333c-4.713,0-8.533-3.82-8.533-8.533s3.82-8.533,8.533-8.533s8.533,3.82,8.533,8.533     C299.446,81.51,295.629,85.327,290.919,85.333z M410.386,85.333c-4.713,0-8.533-3.82-8.533-8.533s3.82-8.533,8.533-8.533     s8.533,3.82,8.533,8.533C418.913,81.51,415.096,85.327,410.386,85.333z" data-original="#000000" class="active-path" data-old_color="#000000" fill="#7A7A7A"/>
			<path d="M171.452,179.2c0.2,0,0.404-0.009,0.604-0.021c2.467-0.175,4.737-1.413,6.221-3.392l25.6-34.133     c1.83-2.438,2.219-5.667,1.022-8.471c-1.197-2.804-3.799-4.756-6.825-5.121c-3.026-0.365-6.018,0.912-7.847,3.35l-19.7,26.263     l-10.109-10.108c-3.341-3.281-8.701-3.256-12.012,0.054s-3.335,8.671-0.054,12.012l17.067,17.067     C167.018,178.301,169.189,179.201,171.452,179.2z" data-original="#000000" class="active-path" data-old_color="#000000" fill="#7A7A7A"/>
			<path d="M148.353,253.5l17.067,17.067c1.599,1.602,3.77,2.501,6.033,2.5c0.2,0,0.404-0.008,0.604-0.021     c2.467-0.175,4.737-1.413,6.221-3.392l25.6-34.133c2.828-3.769,2.065-9.118-1.704-11.946c-3.769-2.828-9.118-2.065-11.946,1.704     l-19.7,26.263l-10.109-10.108c-3.341-3.281-8.701-3.256-12.012,0.054C145.096,244.799,145.072,250.159,148.353,253.5z" data-original="#000000" class="active-path" data-old_color="#000000" fill="#7A7A7A"/>
			<path d="M231.186,170.667h196.267c4.713,0,8.533-3.82,8.533-8.533s-3.82-8.533-8.533-8.533H231.186     c-4.713,0-8.533,3.82-8.533,8.533S226.473,170.667,231.186,170.667z" data-original="#000000" class="active-path" data-old_color="#000000" fill="#7A7A7A"/>
			<path d="M231.186,264.533h196.267c4.713,0,8.533-3.82,8.533-8.533s-3.82-8.533-8.533-8.533H231.186     c-4.713,0-8.533,3.82-8.533,8.533S226.473,264.533,231.186,264.533z" data-original="#000000" class="active-path" data-old_color="#000000" fill="#7A7A7A"/>
			<path d="M231.186,358.4h196.267c4.713,0,8.533-3.82,8.533-8.533s-3.82-8.533-8.533-8.533H231.186     c-4.713,0-8.533,3.82-8.533,8.533S226.473,358.4,231.186,358.4z" data-original="#000000" class="active-path" data-old_color="#000000" fill="#7A7A7A"/>
			<path d="M231.186,452.267h196.267c4.713,0,8.533-3.82,8.533-8.533s-3.82-8.533-8.533-8.533H231.186     c-4.713,0-8.533,3.82-8.533,8.533S226.473,452.267,231.186,452.267z" data-original="#000000" class="active-path" data-old_color="#000000" fill="#7A7A7A"/>
			<path d="M167.724,349.671l6.229,6.229c2.15,2.18,5.304,3.041,8.264,2.255c2.96-0.786,5.271-3.097,6.057-6.057     c0.786-2.96-0.075-6.114-2.255-8.264l-6.072-6.072c-0.173-16.55-6.488-32.446-17.719-44.603l-74.133-80.313     c-4.565-4.933-10.844-7.933-17.55-8.384c-0.498-0.038-0.975-0.168-1.479-0.178h-0.004c-5.376-0.041-10.648,1.487-15.168,4.397     c-1.509,0.986-2.911,2.125-4.186,3.399c-10.141,10.087-10.467,26.395-0.738,36.879l12.787,13.854l0.003,0.002l60.468,65.506     C134.057,341.06,150.366,348.713,167.724,349.671z M61.511,237.383c-2.574-2.788-3.254-6.834-1.734-10.31     c1.52-3.476,4.953-5.724,8.747-5.727l0.2,0.004c2.6,0.041,5.069,1.152,6.825,3.071l6.246,6.767l-13.519,13.523L61.511,237.383z      M93.382,243.737l56.304,60.996c6.981,7.542,11.453,17.062,12.8,27.25c-10.643-1.95-20.368-7.296-27.717-15.237l-54.91-59.486     L93.382,243.737z" data-original="#000000" class="active-path" data-old_color="#000000" fill="#7A7A7A"/>
		</g>
	</g>
</g></g> </svg>
